<?xml version="1.0" encoding="utf-8"?>
<!-- Generator: Adobe Illustrator 21.1.0, SVG Export Plug-In . SVG Version: 6.00 Build 0)  -->
<svg version="1.1" id="Layer_1" xmlns="http://www.w3.org/2000/svg" xmlns:xlink="http://www.w3.org/1999/xlink" x="0px" y="0px"
	 viewBox="0 0 502.9 106.1" style="enable-background:new 0 0 502.9 106.1;" xml:space="preserve">
<style type="text/css">
	.st0{enable-background:new    ;}
	.st1{fill:#002532;}
	.st2{fill:#495965;}
	.st3{fill:none;}
	.st4{fill:#70CACB;}
	.st5{fill:#FDB714;}
	.st6{fill:#67963A;}
	.st7{fill:#00B18F;}
	.st8{fill:#D6C152;}
	.st9{fill:#70A095;}
	.st10{fill:#038062;}
</style>
<title>AidData_Logo</title>
<g class="st0">
	<path class="st1" d="M150.9,67.9h-8.7l24.4-56.3h7.2l24.2,56.3H189l-5.7-13.8h-26.7L150.9,67.9z M159.3,47.1h21.1l-10.5-26.4
		L159.3,47.1z"/>
	<path class="st1" d="M215.4,67.9h-7.9V11.6h7.9V67.9z"/>
	<path class="st1" d="M231.4,11.6h19.3c3.6,0,7.2,0.5,10.8,1.6c3.6,1.1,6.9,2.7,9.8,5c2.9,2.3,5.3,5.2,7.1,8.7
		c1.8,3.6,2.7,7.8,2.7,12.8c0,4.8-0.9,9-2.7,12.5c-1.8,3.5-4.2,6.4-7.1,8.7c-2.9,2.3-6.2,4-9.8,5.2s-7.2,1.7-10.8,1.7h-19.3V11.6z
		 M239.3,61h9.9c3.4,0,6.5-0.5,9.4-1.4c2.9-1,5.4-2.3,7.5-4.1c2.1-1.8,3.7-4,4.9-6.7c1.2-2.7,1.7-5.6,1.7-9c0-3.5-0.6-6.6-1.7-9.2
		c-1.2-2.6-2.8-4.9-4.9-6.6c-2.1-1.8-4.6-3.1-7.5-4.1c-2.9-0.9-6-1.4-9.4-1.4h-9.9V61z"/>
</g>
<g class="st0">
	<path class="st2" d="M294.3,11.6h19.3c3.6,0,7.2,0.5,10.8,1.6c3.6,1.1,6.9,2.7,9.8,5c2.9,2.3,5.3,5.2,7.1,8.7
		c1.8,3.6,2.7,7.8,2.7,12.8c0,4.8-0.9,9-2.7,12.5c-1.8,3.5-4.2,6.4-7.1,8.7c-2.9,2.3-6.2,4-9.8,5.2s-7.2,1.7-10.8,1.7h-19.3V11.6z
		 M302.2,61h9.9c3.4,0,6.5-0.5,9.4-1.4c2.9-1,5.4-2.3,7.5-4.1c2.1-1.8,3.7-4,4.9-6.7c1.2-2.7,1.7-5.6,1.7-9c0-3.5-0.6-6.6-1.7-9.2
		c-1.2-2.6-2.8-4.9-4.9-6.6c-2.1-1.8-4.6-3.1-7.5-4.1c-2.9-0.9-6-1.4-9.4-1.4h-9.9V61z"/>
</g>
<g class="st0">
	<path class="st2" d="M357.6,67.9h-8.7l24.4-56.3h7.2l24.2,56.3h-8.9L390,54.1h-26.7L357.6,67.9z M366,47.1h21.1l-10.5-26.4
		L366,47.1z"/>
	<path class="st2" d="M424.4,67.9h-7.9V18.5h-18v-6.9h44v6.9h-18V67.9z"/>
</g>
<g class="st0">
	<path class="st2" d="M454.6,67.9h-8.7l24.4-56.3h7.2l24.2,56.3h-8.9l-5.7-13.8h-26.7L454.6,67.9z M463,47.1h21.1l-10.5-26.4
		L463,47.1z"/>
</g>
<polygon class="st3" points="61.4,10.5 37.5,10.5 49.5,28.7 "/>
<polygon class="st3" points="37.5,10.5 0,10.5 0,67.9 18.8,39.2 "/>
<polygon class="st3" points="84.9,10.5 61.4,10.5 73.1,28.5 "/>
<polygon class="st3" points="84.9,10.5 103.7,39.2 122.4,67.9 122.4,10.5 "/>
<polygon class="st4" points="103.7,39.2 84.9,10.5 73.1,28.5 80.1,39.2 98.9,67.9 122.4,67.9 "/>
<polygon class="st5" points="61.4,10.5 49.5,28.7 56.3,39.2 61.2,46.7 66.1,39.2 73.1,28.5 "/>
<polygon class="st6" points="80.1,39.2 73.1,28.5 66.1,39.2 61.2,46.7 75.1,67.9 84.9,67.9 98.9,67.9 "/>
<polygon class="st7" points="49.5,28.7 37.5,10.5 18.8,39.2 0,67.9 23.8,67.9 42.6,39.2 "/>
<polygon class="st8" points="56.3,39.2 49.5,28.7 42.6,39.2 23.8,67.9 37.5,67.9 47.3,67.9 61.2,46.7 "/>
<polygon class="st9" points="47.3,67.9 61.4,67.9 75.1,67.9 61.2,46.7 "/>
<g class="st0">
	<path class="st10" d="M152.7,91.2h-6.4l-0.4,1.1c-0.6,1.5-1,2.5-1,3c0,0.5,0.2,0.9,0.5,1.1c0.3,0.3,0.8,0.4,1.3,0.4v0.6h-5v-0.6
		c0.7-0.1,1.3-0.4,1.7-0.8c0.4-0.4,0.8-1.3,1.3-2.6c0-0.1,0.2-0.6,0.6-1.4l4.9-11.6h0.5l5.6,13.3l0.8,1.8c0.2,0.4,0.4,0.7,0.7,0.9
		c0.3,0.2,0.7,0.4,1.3,0.4v0.6h-6.6v-0.6c0.8,0,1.4-0.1,1.6-0.2c0.3-0.1,0.4-0.4,0.4-0.7c0-0.2-0.2-0.7-0.6-1.6L152.7,91.2z
		 M152.5,90.7l-3-7.1l-3,7.1H152.5z"/>
</g>
<g class="st0">
	<path class="st10" d="M183.6,97.4h-4.5c-0.8-0.6-2-2-3.7-4.4c-0.5-0.8-1.1-1.5-1.6-2.2s-1-1.1-1.2-1.3c-0.2-0.2-0.5-0.2-1-0.2h-0.7
		v3.7c0,1.3,0,2.2,0.1,2.6c0.1,0.4,0.2,0.7,0.5,0.9c0.3,0.2,0.8,0.3,1.5,0.3h0.8v0.6h-8v-0.6h0.5c0.7,0,1.2-0.1,1.5-0.3
		c0.3-0.2,0.5-0.5,0.5-0.8c0.1-0.4,0.1-1.3,0.1-2.7v-8.2c0-1.3,0-2.2-0.1-2.6c-0.1-0.4-0.2-0.7-0.5-0.8c-0.3-0.1-0.8-0.2-1.7-0.2
		H166v-0.6l2.4-0.1c1.6-0.1,2.9-0.1,3.8-0.1c1.6,0,2.9,0.1,3.9,0.4c1,0.3,1.8,0.8,2.4,1.5s0.9,1.5,0.9,2.4c0,1.1-0.4,2-1.2,2.8
		c-0.8,0.8-2,1.3-3.6,1.4c0.7,0.3,1.8,1.6,3.4,3.7c1.3,1.7,2.3,2.8,3,3.3c0.7,0.5,1.6,0.8,2.6,0.8V97.4z M170.9,88.8
		c0.6,0,1.3,0,1.9-0.1c0.7,0,1.2-0.1,1.7-0.3s0.9-0.4,1.2-0.6c0.3-0.3,0.5-0.7,0.7-1.1s0.3-1,0.3-1.7c0-1.2-0.3-2.1-0.9-2.8
		s-1.9-1.1-3.8-1.1c-0.3,0-0.7,0-1,0V88.8z"/>
</g>
<g class="st0">
	<path class="st10" d="M192.6,90.7h-7c0,0.5,0,0.8,0,1.1c0,1.8,0.3,3.1,0.8,4c0.6,0.9,1.4,1.3,2.5,1.3c1.5,0,2.6-0.7,3.2-2h0.6
		c-0.3,0.8-0.8,1.5-1.6,2c-0.8,0.5-1.6,0.7-2.6,0.7c-0.9,0-1.7-0.2-2.4-0.6c-0.8-0.4-1.4-1-1.9-1.8c-0.5-0.8-0.7-1.7-0.7-2.9
		c0-1.6,0.5-2.9,1.4-4c0.9-1.1,2.1-1.6,3.5-1.6c1.3,0,2.3,0.4,3.1,1.2C192.2,88.9,192.5,89.8,192.6,90.7z M190.4,90.2
		c0-0.2,0-0.4,0-0.5c0-0.7-0.2-1.3-0.6-1.7s-0.9-0.6-1.6-0.6c-1.5,0-2.4,0.9-2.7,2.8H190.4z"/>
	<path class="st10" d="M194.6,97.7v-3.3h0.5c0.6,1.9,1.6,2.9,3,2.9c0.6,0,1.1-0.2,1.4-0.6c0.3-0.4,0.5-0.8,0.5-1.2
		c0-0.5-0.2-1-0.5-1.3c-0.3-0.3-1-0.7-2-1.2c-1-0.5-1.8-1-2.2-1.5c-0.4-0.5-0.7-1.1-0.7-1.8c0-0.7,0.2-1.3,0.7-1.9
		c0.5-0.6,1.1-0.9,2-0.9c0.9,0,1.6,0.4,2.2,1.1c0.1-0.1,0.3-0.4,0.5-0.9h0.5v3.1H200c-0.2-0.7-0.5-1.4-1-1.9c-0.5-0.5-1-0.8-1.7-0.8
		c-0.5,0-0.9,0.2-1.2,0.5c-0.3,0.3-0.5,0.7-0.5,1.1c0,0.4,0.2,0.8,0.5,1.1c0.3,0.3,1,0.7,1.9,1.1c1.4,0.6,2.3,1.3,2.6,1.9
		c0.3,0.6,0.5,1.2,0.5,1.8c0,0.9-0.3,1.6-0.9,2.1c-0.6,0.6-1.3,0.8-2.2,0.8c-0.9,0-1.8-0.4-2.5-1.1c-0.2,0.2-0.4,0.6-0.5,1.1H194.6z
		"/>
	<path class="st10" d="M212.1,90.7h-7c0,0.5,0,0.8,0,1.1c0,1.8,0.3,3.1,0.8,4c0.6,0.9,1.4,1.3,2.5,1.3c1.5,0,2.6-0.7,3.2-2h0.6
		c-0.3,0.8-0.8,1.5-1.6,2c-0.8,0.5-1.6,0.7-2.6,0.7c-0.9,0-1.7-0.2-2.4-0.6c-0.8-0.4-1.4-1-1.9-1.8c-0.5-0.8-0.7-1.7-0.7-2.9
		c0-1.6,0.5-2.9,1.4-4c0.9-1.1,2.1-1.6,3.5-1.6c1.3,0,2.3,0.4,3.1,1.2C211.6,88.9,212,89.8,212.1,90.7z M209.9,90.2
		c0-0.2,0-0.4,0-0.5c0-0.7-0.2-1.3-0.6-1.7s-0.9-0.6-1.6-0.6c-1.5,0-2.4,0.9-2.7,2.8H209.9z"/>
	<path class="st10" d="M224.2,95.6h0.5c-0.1,1.4-0.8,2.1-2.1,2.1c-0.6,0-1-0.1-1.3-0.4c-0.3-0.3-0.5-0.7-0.6-1.3
		c-0.8,0.6-1.6,1-2.3,1.3c-0.7,0.3-1.3,0.4-1.8,0.4c-0.7,0-1.3-0.2-1.8-0.6c-0.5-0.4-0.7-0.9-0.7-1.6c0-0.8,0.4-1.6,1.2-2.2
		s2-1.3,3.4-1.9l1.9-0.8v-0.5c0-0.7,0-1.2-0.1-1.5c-0.1-0.3-0.3-0.6-0.7-0.8s-0.9-0.4-1.5-0.4c-1.2,0-1.9,0.4-2.1,1.2
		c-0.1,0.8-0.5,1.3-1,1.3c-0.5,0-0.8-0.2-0.8-0.7c0-0.5,0.3-1,1-1.5s1.7-0.8,3.1-0.8c1,0,1.9,0.2,2.4,0.5c0.6,0.3,1,0.7,1.1,1.1
		c0.2,0.4,0.3,1.1,0.3,1.9v4.1c0,1,0,1.6,0.1,1.8s0.3,0.4,0.6,0.4C223.7,96.8,224,96.4,224.2,95.6z M220.6,91.2l-1.3,0.5
		c-2.1,0.9-3.2,2-3.2,3.3c0,0.5,0.1,0.9,0.4,1.3c0.3,0.3,0.6,0.5,1.1,0.5c0.4,0,0.8-0.1,1.3-0.4s1.1-0.6,1.7-1.1V91.2z"/>
</g>
<g class="st0">
	<path class="st10" d="M229.1,89.5c0.3-0.7,0.7-1.3,1.4-1.8c0.6-0.5,1.2-0.7,1.8-0.7c0.5,0,1,0.2,1.3,0.5c0.3,0.3,0.5,0.7,0.5,1
		c0,0.2-0.1,0.4-0.2,0.6s-0.4,0.3-0.6,0.3c-0.4,0-0.7-0.3-0.9-0.9c-0.1-0.4-0.4-0.6-0.7-0.6c-0.4,0-0.8,0.2-1.3,0.7s-0.8,1-1,1.5
		c-0.1,0.5-0.2,1.2-0.2,2.1V94c0,1.1,0,1.8,0,2c0,0.3,0.1,0.5,0.4,0.6c0.2,0.1,0.6,0.2,1.1,0.2h0.3v0.6h-5.4v-0.6h0.3
		c0.5,0,0.8-0.1,1.1-0.2s0.3-0.3,0.4-0.6c0-0.2,0.1-1,0.1-2.1v-2.9c0-1.1,0-1.8,0-2c0-0.3-0.1-0.5-0.4-0.6c-0.2-0.2-0.6-0.2-1.1-0.2
		h-0.3v-0.6c0.8-0.1,1.8-0.3,3-0.7C228.9,87.6,229.1,88.4,229.1,89.5z"/>
</g>
<g class="st0">
	<path class="st10" d="M243.3,95h0.5c-0.6,1.9-2,2.9-4.2,2.9c-1.4,0-2.7-0.5-3.6-1.5s-1.5-2.3-1.5-3.9c0-1.7,0.5-3,1.6-4
		c1.1-1,2.3-1.5,3.8-1.5c0.9,0,1.7,0.2,2.4,0.6c0.7,0.4,1.1,0.9,1.1,1.4c0,0.2-0.1,0.4-0.2,0.6c-0.1,0.2-0.3,0.3-0.6,0.3
		c-0.5,0-0.9-0.3-1-1c-0.1-0.5-0.3-0.8-0.5-1c-0.2-0.2-0.6-0.3-1.2-0.3c-1.1,0-1.9,0.4-2.5,1.1c-0.6,0.8-0.8,1.9-0.8,3.5
		c0,1.6,0.3,2.8,0.9,3.7c0.6,0.9,1.5,1.3,2.7,1.3C241.8,97.2,242.8,96.4,243.3,95z"/>
</g>
<g class="st0">
	<path class="st10" d="M248.3,89c0.5-0.7,1-1.2,1.7-1.6c0.6-0.3,1.3-0.5,2-0.5c0.8,0,1.5,0.2,2.1,0.5c0.5,0.3,0.9,0.8,1.1,1.3
		c0.2,0.5,0.2,1.3,0.2,2.5V94c0,1.2,0,1.9,0.1,2.2c0,0.3,0.2,0.4,0.4,0.6c0.2,0.1,0.6,0.2,1.2,0.2v0.6h-5.2v-0.6h0.2
		c0.6,0,1-0.1,1.2-0.3s0.3-0.4,0.3-0.6c0-0.2,0-0.9,0-2v-3c0-0.8,0-1.5-0.1-1.9s-0.3-0.7-0.7-1c-0.4-0.3-0.8-0.4-1.4-0.4
		c-0.6,0-1.2,0.2-1.7,0.6s-1,0.9-1.3,1.7v4c0,1.1,0,1.8,0.1,2.1s0.2,0.5,0.4,0.6s0.6,0.2,1.2,0.2v0.6h-5.1v-0.6h0.3
		c0.6,0,1-0.1,1.2-0.3c0.2-0.2,0.3-0.4,0.3-0.6s0-0.9,0-2V83.9c0-1-0.1-1.7-0.3-1.9c-0.2-0.3-0.7-0.4-1.4-0.4V81
		c1.3,0,2.3-0.2,3.2-0.5h0.3V89z"/>
	<path class="st10" d="M278.9,92.5l-0.1,4.9h-14.2v-0.6h0.5c0.7,0,1.2-0.1,1.5-0.3c0.3-0.2,0.5-0.5,0.5-0.8c0.1-0.4,0.1-1.3,0.1-2.7
		v-8.2c0-1.3,0-2.2-0.1-2.6c-0.1-0.4-0.2-0.7-0.5-0.8s-0.8-0.2-1.6-0.2h-0.4v-0.6h8v0.6h-0.7c-0.8,0-1.4,0.1-1.6,0.2
		c-0.3,0.1-0.4,0.4-0.5,0.8c-0.1,0.4-0.1,1.3-0.1,2.6v8.8c0,1.2,0,2,0.1,2.3c0.1,0.3,0.2,0.5,0.5,0.7c0.3,0.2,0.9,0.3,1.9,0.3h1.3
		c1,0,1.8-0.1,2.3-0.3c0.5-0.2,1-0.6,1.4-1.2c0.4-0.6,0.9-1.6,1.2-2.9H278.9z"/>
	<path class="st10" d="M290.3,95.6h0.5c-0.1,1.4-0.8,2.1-2.1,2.1c-0.6,0-1-0.1-1.3-0.4c-0.3-0.3-0.5-0.7-0.6-1.3
		c-0.8,0.6-1.6,1-2.3,1.3c-0.7,0.3-1.3,0.4-1.8,0.4c-0.7,0-1.3-0.2-1.8-0.6c-0.5-0.4-0.7-0.9-0.7-1.6c0-0.8,0.4-1.6,1.2-2.2
		s2-1.3,3.4-1.9l1.9-0.8v-0.5c0-0.7,0-1.2-0.1-1.5c-0.1-0.3-0.3-0.6-0.7-0.8c-0.4-0.2-0.9-0.4-1.5-0.4c-1.2,0-1.9,0.4-2.1,1.2
		c-0.1,0.8-0.5,1.3-1,1.3c-0.5,0-0.8-0.2-0.8-0.7c0-0.5,0.3-1,1-1.5c0.7-0.5,1.7-0.8,3.1-0.8c1,0,1.9,0.2,2.4,0.5s1,0.7,1.1,1.1
		c0.2,0.4,0.3,1.1,0.3,1.9v4.1c0,1,0,1.6,0.1,1.8s0.3,0.4,0.6,0.4C289.8,96.8,290.2,96.4,290.3,95.6z M286.7,91.2l-1.3,0.5
		c-2.1,0.9-3.2,2-3.2,3.3c0,0.5,0.1,0.9,0.4,1.3c0.3,0.3,0.6,0.5,1.1,0.5c0.4,0,0.8-0.1,1.3-0.4c0.5-0.3,1.1-0.6,1.7-1.1V91.2z"/>
	<path class="st10" d="M293.4,97.8h-0.5V84.3c0-1,0-1.6-0.1-1.9c-0.1-0.3-0.2-0.5-0.4-0.6c-0.2-0.1-0.6-0.2-1.1-0.2V81
		c0.5,0,1.1-0.1,1.8-0.2c0.7-0.1,1.1-0.2,1.4-0.3h0.3v8c0.6-0.5,1.2-0.9,1.8-1.2c0.6-0.3,1.2-0.4,1.8-0.4c1.5,0,2.6,0.5,3.6,1.5
		c0.9,1,1.4,2.3,1.4,3.9c0,1.6-0.5,2.9-1.4,4c-1,1.1-2.2,1.6-3.7,1.6c-0.7,0-1.4-0.2-2-0.5s-1-0.8-1.4-1.4
		C294.2,96.5,293.8,97.1,293.4,97.8z M294.7,89.2v4c0,1,0.1,1.8,0.2,2.2c0.1,0.4,0.5,0.9,1,1.3c0.5,0.4,1.1,0.6,1.8,0.6
		c1.1,0,1.9-0.4,2.5-1.3c0.6-0.9,0.9-2.1,0.9-3.8c0-1.5-0.3-2.7-0.9-3.4c-0.6-0.8-1.4-1.2-2.4-1.2c-0.6,0-1.1,0.1-1.6,0.4
		C295.8,88.2,295.3,88.6,294.7,89.2z"/>
</g>
<g class="st0">
	<path class="st10" d="M321.6,95.6h0.5c-0.1,1.4-0.8,2.1-2.1,2.1c-0.6,0-1-0.1-1.3-0.4c-0.3-0.3-0.5-0.7-0.6-1.3
		c-0.8,0.6-1.6,1-2.3,1.3c-0.7,0.3-1.3,0.4-1.8,0.4c-0.7,0-1.3-0.2-1.8-0.6c-0.5-0.4-0.7-0.9-0.7-1.6c0-0.8,0.4-1.6,1.2-2.2
		s2-1.3,3.4-1.9l1.9-0.8v-0.5c0-0.7,0-1.2-0.1-1.5c-0.1-0.3-0.3-0.6-0.7-0.8c-0.4-0.2-0.9-0.4-1.5-0.4c-1.2,0-1.9,0.4-2.1,1.2
		c-0.1,0.8-0.5,1.3-1,1.3c-0.5,0-0.8-0.2-0.8-0.7c0-0.5,0.3-1,1-1.5c0.7-0.5,1.7-0.8,3.1-0.8c1,0,1.9,0.2,2.4,0.5s1,0.7,1.1,1.1
		c0.2,0.4,0.3,1.1,0.3,1.9v4.1c0,1,0,1.6,0.1,1.8s0.3,0.4,0.6,0.4C321.1,96.8,321.5,96.4,321.6,95.6z M318,91.2l-1.3,0.5
		c-2.1,0.9-3.2,2-3.2,3.3c0,0.5,0.1,0.9,0.4,1.3c0.3,0.3,0.6,0.5,1.1,0.5c0.4,0,0.8-0.1,1.3-0.4c0.5-0.3,1.1-0.6,1.7-1.1V91.2z"/>
</g>
<g class="st0">
	<path class="st10" d="M329,87.9h-3V94c0,0.9,0,1.6,0.1,1.9c0.1,0.3,0.3,0.6,0.5,0.8s0.6,0.3,0.9,0.3c0.6,0,1.1-0.3,1.5-1l0.4,0.2
		c-0.3,0.5-0.6,1-1.1,1.2c-0.5,0.3-1,0.4-1.5,0.4c-0.6,0-1.1-0.2-1.6-0.5s-0.7-0.8-0.8-1.2c-0.1-0.5-0.2-1.3-0.2-2.5v-5.7h-1.5v-0.6
		c0.7,0,1.3-0.3,1.8-0.9c0.5-0.6,0.9-1.3,1-2.3h0.4v3.2h3V87.9z"/>
</g>
<g class="st0">
	<path class="st10" d="M353.2,97.8h-0.6L347.6,84l-4.5,13.8h-0.6l-4-13c-0.4-1.2-0.6-2-0.8-2.4s-0.4-0.7-0.6-0.9
		c-0.3-0.2-0.7-0.3-1.3-0.3v-0.6h6.3v0.6c-0.8,0-1.2,0.2-1.5,0.3c-0.2,0.2-0.3,0.4-0.3,0.7c0,0.3,0.2,1,0.5,2.1l3,9.8l4.4-13.4h0.7
		l4.9,13.4l2.6-8.9c0.3-1.2,0.5-2,0.5-2.4c0-1.1-0.6-1.6-1.7-1.6v-0.6h4.6v0.6c-0.7,0-1.2,0.3-1.5,0.7c-0.3,0.4-0.7,1.5-1.2,3.2
		L353.2,97.8z"/>
</g>
<g class="st0">
	<path class="st10" d="M362.9,86.9v7c0,1.1,0,1.8,0,2c0,0.3,0.2,0.5,0.4,0.6s0.6,0.2,1.1,0.2h0.3v0.6h-5.4v-0.6h0.4
		c0.6,0,1-0.1,1.1-0.3c0.2-0.2,0.3-0.4,0.3-0.6c0-0.2,0-0.9,0-2v-3.1c0-1.2-0.1-1.9-0.2-2.2s-0.3-0.4-0.4-0.5
		c-0.2-0.1-0.5-0.1-1-0.1h-0.3v-0.6c1.5-0.1,2.6-0.4,3.4-0.7H362.9z M360.5,81.7c0-0.4,0.1-0.7,0.4-0.9s0.6-0.4,0.9-0.4
		s0.7,0.1,0.9,0.4s0.4,0.6,0.4,0.9c0,0.4-0.1,0.7-0.4,0.9s-0.5,0.4-0.9,0.4s-0.7-0.1-0.9-0.4S360.5,82.1,360.5,81.7z"/>
	<path class="st10" d="M369,80.4V94c0,1.1,0,1.8,0,2c0,0.3,0.1,0.5,0.4,0.6c0.2,0.1,0.6,0.2,1.1,0.2h0.3v0.6h-5.4v-0.6h0.3
		c0.5,0,0.8-0.1,1.1-0.2s0.3-0.3,0.4-0.6s0.1-1,0.1-2.1V84c0-1.1-0.1-1.7-0.3-2s-0.6-0.4-1.4-0.4V81c0.5,0,1.1-0.1,1.8-0.2
		c0.7-0.1,1.1-0.2,1.4-0.3H369z"/>
	<path class="st10" d="M375,80.4V94c0,1.1,0,1.8,0,2c0,0.3,0.1,0.5,0.4,0.6s0.6,0.2,1.1,0.2h0.3v0.6h-5.4v-0.6h0.3
		c0.5,0,0.8-0.1,1.1-0.2s0.3-0.3,0.4-0.6s0.1-1,0.1-2.1V84c0-1.1-0.1-1.7-0.3-2s-0.7-0.4-1.4-0.4V81c0.5,0,1.1-0.1,1.8-0.2
		s1.1-0.2,1.4-0.3H375z"/>
	<path class="st10" d="M381.3,86.9v7c0,1.1,0,1.8,0,2c0,0.3,0.2,0.5,0.4,0.6s0.6,0.2,1.1,0.2h0.3v0.6h-5.4v-0.6h0.4
		c0.6,0,1-0.1,1.1-0.3c0.2-0.2,0.3-0.4,0.3-0.6c0-0.2,0-0.9,0-2v-3.1c0-1.2-0.1-1.9-0.2-2.2s-0.3-0.4-0.4-0.5
		c-0.2-0.1-0.5-0.1-1-0.1h-0.3v-0.6c1.5-0.1,2.6-0.4,3.4-0.7H381.3z M378.9,81.7c0-0.4,0.1-0.7,0.4-0.9s0.6-0.4,0.9-0.4
		s0.7,0.1,0.9,0.4s0.4,0.6,0.4,0.9c0,0.4-0.1,0.7-0.4,0.9s-0.5,0.4-0.9,0.4s-0.7-0.1-0.9-0.4S378.9,82.1,378.9,81.7z"/>
	<path class="st10" d="M394.7,95.6h0.5c-0.1,1.4-0.8,2.1-2.1,2.1c-0.6,0-1-0.1-1.3-0.4c-0.3-0.3-0.5-0.7-0.6-1.3
		c-0.8,0.6-1.6,1-2.3,1.3c-0.7,0.3-1.3,0.4-1.8,0.4c-0.7,0-1.3-0.2-1.8-0.6c-0.5-0.4-0.7-0.9-0.7-1.6c0-0.8,0.4-1.6,1.2-2.2
		s2-1.3,3.4-1.9l1.9-0.8v-0.5c0-0.7,0-1.2-0.1-1.5c-0.1-0.3-0.3-0.6-0.7-0.8c-0.4-0.2-0.9-0.4-1.5-0.4c-1.2,0-1.9,0.4-2.1,1.2
		c-0.1,0.8-0.5,1.3-1,1.3c-0.5,0-0.8-0.2-0.8-0.7c0-0.5,0.3-1,1-1.5c0.7-0.5,1.7-0.8,3.1-0.8c1,0,1.9,0.2,2.4,0.5s1,0.7,1.1,1.1
		c0.2,0.4,0.3,1.1,0.3,1.9v4.1c0,1,0,1.6,0.1,1.8s0.3,0.4,0.6,0.4C394.2,96.8,394.6,96.4,394.7,95.6z M391.1,91.2l-1.3,0.5
		c-2.1,0.9-3.2,2-3.2,3.3c0,0.5,0.1,0.9,0.4,1.3c0.3,0.3,0.6,0.5,1.1,0.5c0.4,0,0.8-0.1,1.3-0.4c0.5-0.3,1.1-0.6,1.7-1.1V91.2z"/>
	<path class="st10" d="M398.9,86.9h0.1c0.2,0.6,0.4,1.3,0.4,2.1c0.6-0.7,1.1-1.2,1.8-1.6c0.6-0.4,1.3-0.5,2.1-0.5
		c0.8,0,1.5,0.2,2,0.6c0.5,0.4,0.9,0.9,1.1,1.7c0.6-0.8,1.3-1.3,1.9-1.7c0.7-0.4,1.3-0.6,2-0.6c0.8,0,1.4,0.2,2,0.5s0.9,0.8,1,1.2
		s0.2,1.2,0.2,2.2v3c0,1.2,0,1.9,0.1,2.1c0,0.3,0.2,0.4,0.4,0.6s0.6,0.2,1.2,0.2v0.6h-5v-0.6c0.5,0,0.9-0.1,1.1-0.2
		c0.2-0.1,0.4-0.3,0.4-0.5c0-0.2,0.1-1,0.1-2.2v-3.4c0-0.7,0-1.2-0.1-1.5c-0.1-0.3-0.3-0.6-0.6-0.9c-0.3-0.2-0.8-0.4-1.3-0.4
		c-0.5,0-1.1,0.2-1.6,0.5c-0.5,0.4-1.1,0.9-1.6,1.6v4c0,1.1,0,1.8,0,2c0,0.3,0.1,0.5,0.3,0.6c0.2,0.2,0.6,0.2,1.1,0.2v0.6H403v-0.6
		c0.6,0,0.9-0.1,1.2-0.2s0.4-0.3,0.4-0.5c0.1-0.2,0.1-1,0.1-2.2v-2.8c0-0.9,0-1.5-0.1-1.9c-0.1-0.4-0.3-0.7-0.6-1
		c-0.4-0.3-0.8-0.4-1.3-0.4c-0.5,0-1,0.2-1.6,0.5c-0.5,0.3-1.1,0.8-1.6,1.5V94c0,1.1,0,1.8,0,2.1s0.2,0.5,0.4,0.6
		c0.2,0.1,0.6,0.2,1.1,0.2v0.6h-5v-0.6c0.5,0,0.9-0.1,1.1-0.2c0.2-0.1,0.4-0.3,0.4-0.5c0-0.2,0.1-1,0.1-2.2v-3c0-1.2,0-1.9-0.1-2.1
		c0-0.3-0.2-0.5-0.4-0.6c-0.2-0.1-0.6-0.2-1.2-0.2v-0.6C397.2,87.3,398.2,87.2,398.9,86.9z"/>
	<path class="st10" d="M432.9,87.3h5.3v0.6c-0.7,0.2-1.2,0.5-1.8,1c-0.5,0.4-1,1.3-1.5,2.6c-0.4,1.1-0.9,1.8-1.2,2.3
		c0.9,1.3,1.6,2.1,2.1,2.4c0.5,0.3,1,0.5,1.6,0.5c0.8,0,1.4-0.4,1.8-1.1h0.6c-0.2,0.7-0.5,1.2-1.1,1.6c-0.6,0.4-1.2,0.6-2,0.6
		c-1.6,0-3-0.8-4.2-2.4c-1.4,1.6-3,2.4-4.6,2.4c-0.6,0-1.2-0.1-1.7-0.3c-0.6-0.2-1.1-0.5-1.5-0.9c-0.4-0.4-0.8-0.9-1.1-1.5
		s-0.4-1.2-0.4-1.9c0-1,0.3-1.9,0.8-2.6c0.6-0.7,1.6-1.6,3.2-2.7c-1-1.3-1.4-2.6-1.4-3.6c0-0.8,0.3-1.6,1-2.3c0.7-0.7,1.5-1,2.5-1
		c0.9,0,1.7,0.3,2.4,0.8c0.7,0.5,1.1,1.2,1.1,2c0,1.3-1.2,2.5-3.6,3.7c0.7,1,1.5,2,2.1,2.9c0.7,1,1.4,1.9,2,2.8
		c0.5-0.7,0.8-1.3,1.1-2c0.3-0.7,0.4-1.3,0.4-1.7c0-0.9-0.6-1.5-1.9-1.6V87.3z M427.6,88.5c-0.9,0.5-1.5,1.2-2,1.9
		c-0.5,0.7-0.7,1.4-0.7,2c0,1,0.4,2,1.2,2.9c0.8,0.9,1.7,1.3,2.8,1.3c1.1,0,2.2-0.6,3.2-1.7c-0.9-1.3-1.7-2.5-2.4-3.6
		C428.9,90.2,428.2,89.3,427.6,88.5z M428.8,87c1.6-1,2.5-2,2.5-3.1c0-0.3,0-0.6-0.1-0.9c-0.1-0.3-0.2-0.5-0.4-0.7
		c-0.2-0.2-0.4-0.3-0.6-0.5c-0.2-0.1-0.5-0.2-0.8-0.2c-0.6,0-1.1,0.2-1.4,0.6c-0.4,0.4-0.5,0.9-0.5,1.5
		C427.3,84.5,427.8,85.6,428.8,87z"/>
	<path class="st10" d="M457.7,94.5l6.1-13.8h5.1v0.6h-0.6c-0.8,0-1.4,0.1-1.6,0.2s-0.4,0.4-0.5,0.8c-0.1,0.4-0.1,1.3-0.1,2.6v8.2
		c0,1.3,0,2.2,0.1,2.6c0.1,0.4,0.2,0.7,0.5,0.9c0.3,0.2,0.8,0.3,1.5,0.3h0.7v0.6h-8v-0.6h0.6c0.7,0,1.2-0.1,1.5-0.3
		c0.3-0.2,0.5-0.5,0.5-0.8c0.1-0.4,0.1-1.3,0.1-2.7V82.4l-6.6,15h-0.6l-6.7-15v9.8c0,1.3,0,2.3,0.1,2.7s0.3,0.9,0.8,1.3
		s1,0.6,1.8,0.6v0.6h-6v-0.6c0.7,0,1.3-0.2,1.7-0.6c0.4-0.3,0.7-0.8,0.8-1.3c0.1-0.5,0.1-1.5,0.1-2.8v-7.3c0-1.3,0-2.2-0.1-2.6
		c-0.1-0.4-0.2-0.7-0.5-0.8s-0.8-0.2-1.6-0.2h-0.5v-0.6h5.1L457.7,94.5z"/>
	<path class="st10" d="M480.5,95.6h0.5c-0.1,1.4-0.8,2.1-2.1,2.1c-0.6,0-1-0.1-1.3-0.4c-0.3-0.3-0.5-0.7-0.6-1.3
		c-0.8,0.6-1.6,1-2.3,1.3c-0.7,0.3-1.3,0.4-1.8,0.4c-0.7,0-1.3-0.2-1.8-0.6c-0.5-0.4-0.7-0.9-0.7-1.6c0-0.8,0.4-1.6,1.2-2.2
		s2-1.3,3.4-1.9l1.9-0.8v-0.5c0-0.7,0-1.2-0.1-1.5c-0.1-0.3-0.3-0.6-0.7-0.8c-0.4-0.2-0.9-0.4-1.5-0.4c-1.2,0-1.9,0.4-2.1,1.2
		c-0.1,0.8-0.5,1.3-1,1.3c-0.5,0-0.8-0.2-0.8-0.7c0-0.5,0.3-1,1-1.5c0.7-0.5,1.7-0.8,3.1-0.8c1,0,1.9,0.2,2.4,0.5s1,0.7,1.1,1.1
		c0.2,0.4,0.3,1.1,0.3,1.9v4.1c0,1,0,1.6,0.1,1.8s0.3,0.4,0.6,0.4C480.1,96.8,480.4,96.4,480.5,95.6z M477,91.2l-1.3,0.5
		c-2.1,0.9-3.2,2-3.2,3.3c0,0.5,0.1,0.9,0.4,1.3c0.3,0.3,0.6,0.5,1.1,0.5c0.4,0,0.8-0.1,1.3-0.4c0.5-0.3,1.1-0.6,1.7-1.1V91.2z"/>
</g>
<g class="st0">
	<path class="st10" d="M485.4,89.5c0.3-0.7,0.7-1.3,1.4-1.8c0.6-0.5,1.2-0.7,1.8-0.7c0.5,0,1,0.2,1.3,0.5c0.3,0.3,0.5,0.7,0.5,1
		c0,0.2-0.1,0.4-0.2,0.6c-0.2,0.2-0.4,0.3-0.6,0.3c-0.4,0-0.7-0.3-0.9-0.9c-0.1-0.4-0.4-0.6-0.7-0.6c-0.4,0-0.8,0.2-1.3,0.7
		c-0.5,0.5-0.8,1-1,1.5s-0.2,1.2-0.2,2.1V94c0,1.1,0,1.8,0,2c0,0.3,0.1,0.5,0.4,0.6c0.2,0.1,0.6,0.2,1.1,0.2h0.3v0.6H482v-0.6h0.3
		c0.5,0,0.8-0.1,1.1-0.2s0.3-0.3,0.4-0.6c0-0.2,0.1-1,0.1-2.1v-2.9c0-1.1,0-1.8,0-2c0-0.3-0.1-0.5-0.4-0.6c-0.2-0.2-0.6-0.2-1.1-0.2
		H482v-0.6c0.8-0.1,1.8-0.3,3-0.7C485.3,87.6,485.4,88.4,485.4,89.5z"/>
</g>
<g class="st0">
	<path class="st10" d="M497.3,95.5l2.3-5.6c0.3-0.8,0.5-1.3,0.5-1.4c0-0.4-0.5-0.6-1.4-0.6v-0.6h3.6v0.6c-0.6,0-1,0.2-1.2,0.4
		s-0.6,0.9-1,1.8l-4.5,10.9c-0.4,1-0.8,1.7-1.1,2.1c-0.3,0.4-0.7,0.6-1.1,0.6c-0.5,0-0.8-0.2-0.8-0.7c0-0.6,0.4-1,1.3-1.4
		c0.5-0.2,0.8-0.4,1-0.6s0.3-0.4,0.5-0.9l1-2.4l-3.8-8.1c-0.3-0.7-0.6-1.2-0.8-1.4c-0.2-0.2-0.6-0.3-1.1-0.3v-0.6h4.6v0.6
		c-0.8,0-1.2,0.2-1.2,0.5c0,0.1,0.2,0.5,0.5,1.2L497.3,95.5z"/>
</g>
</svg>
