<?xml version="1.0" encoding="UTF-8"?>
<svg version="1.1" xmlns="http://www.w3.org/2000/svg" width="32" height="32">
<path d="M0 0 C0.99 0.99 1.98 1.98 3 3 C3.66 2.01 4.32 1.02 5 0 C5.66 0 6.32 0 7 0 C7.33 0.66 7.66 1.32 8 2 C8.66 2 9.32 2 10 2 C10.66 1.34 11.32 0.68 12 0 C13.29838176 1.7241302 14.58843747 3.45453232 15.875 5.1875 C16.59429688 6.15042969 17.31359375 7.11335937 18.0546875 8.10546875 C20 11 20 11 22 16 C11.44 16 0.88 16 -10 16 C-8.26230366 11.65575915 -6.62691121 8.87151017 -3.875 5.1875 C-3.15054687 4.21167969 -2.42609375 3.23585938 -1.6796875 2.23046875 C-0.84824219 1.12638672 -0.84824219 1.12638672 0 0 Z " fill="#6FC9C9" transform="translate(10,8)"/>
<path d="M0 0 C1.5625 1.25 1.5625 1.25 3 3 C2.73421913 6.29840879 1.0621314 8.91730936 -0.5625 11.75 C-1.01753906 12.54921875 -1.47257813 13.3484375 -1.94140625 14.171875 C-2.29074219 14.77515625 -2.64007813 15.3784375 -3 16 C-5.31 16 -7.62 16 -10 16 C-8.55797524 11.84848662 -6.4989562 8.70021555 -3.875 5.1875 C-3.15054687 4.21167969 -2.42609375 3.23585938 -1.6796875 2.23046875 C-0.84824219 1.12638672 -0.84824219 1.12638672 0 0 Z " fill="#04B28F" transform="translate(10,8)"/>
<path d="M0 0 C0.66 0 1.32 0 2 0 C4 3 4 3 3.78515625 4.890625 C2.87683478 7.33089164 1.73282099 9.49149161 0.4375 11.75 C-0.01753906 12.54921875 -0.47257813 13.3484375 -0.94140625 14.171875 C-1.29074219 14.77515625 -1.64007813 15.3784375 -2 16 C-3.98 16 -5.96 16 -8 16 C-7.31387652 12.12763186 -5.52450228 9.12741765 -3.5625 5.75 C-2.94503906 4.67234375 -2.32757812 3.5946875 -1.69140625 2.484375 C-1.13324219 1.66453125 -0.57507813 0.8446875 0 0 Z " fill="#D0C155" transform="translate(15,8)"/>
<path d="M0 0 C4.04131267 1.34710422 4.90288434 3.38428334 7 7 C7 7.99 7 8.98 7 10 C3.04 10 -0.92 10 -5 10 C-3.96532992 5.8613197 -2.43050464 3.44974852 0 0 Z " fill="#679840" transform="translate(18,14)"/>
<path d="M0 0 C0.66 0 1.32 0 2 0 C4 3 4 3 3.6875 5.0625 C3 7 3 7 2 9 C1.34 9 0.68 9 0 9 C-1.125 6.75 -1.125 6.75 -2 4 C-1.125 1.6875 -1.125 1.6875 0 0 Z " fill="#F8B615" transform="translate(15,8)"/>
<path d="M0 0 C0.66 0 1.32 0 2 0 C4 3 4 3 4 6 C2.02 6 0.04 6 -2 6 C-1.49396008 3.83125748 -1.00016187 2.00032373 0 0 Z " fill="#72A291" transform="translate(15,18)"/>
</svg>
